# xmcd
#
# Track frame offsets:
#	150
#	11935
#	32977
#	53013
#	76002
#	94808
#	108733
#	119006
#	144854
#	147740
#	174250
#	190158
#
# Disc length: 2776 seconds
#
# Revision: 5
# Processed by: cddbd v1.4PL0 Copyright (c) Steve Scherf et al.
# Submitted via: MusicWizard 7.0.1
#
DISCID=a60ad60c
DTITLE=John Carter Cash - Bitter Harvest
DYEAR=2003
DGENRE=Countryrock
TTITLE0=Mongolian King
TTITLE1=Crumblin´ Rock Of Dixie
TTITLE2=Remain Calm
TTITLE3=Sinking In The Lonesome Sea
TTITLE4=Carmen
TTITLE5=Loch Ness Monster
TTITLE6=Only A Dream
TTITLE7=Bitter Harvest
TTITLE8=Mongolian King (Slight Reprise)
TTITLE9=Fire On The Isle Of St. August, Jamaica
TTITLE10=Blame It On Me
TTITLE11=Wayworn Traveler
EXTD=(c) 2003 AGR Television Records - Universal Music\nAGR 2007\nupc 4260019220073
EXTT0=
EXTT1=
EXTT2=
EXTT3=
EXTT4=
EXTT5=
EXTT6=
EXTT7=
EXTT8=
EXTT9=
EXTT10=
EXTT11=
PLAYORDER=
